<svg width="534" height="102" xmlns="http://www.w3.org/2000/svg">
 <defs>
  <clipPath id="a">
   <path d="m6.75,0.00391l71.25,0l0,71.21093l-71.25,0l0,-71.21093zm0,0" id="svg_1"/>
  </clipPath>
  <clipPath id="b">
   <path d="m51.59375,42.00781l23.67578,0l0,32.99219l-23.67578,0l0,-32.99219zm0,0" id="svg_2"/>
  </clipPath>
 </defs>
 <g>
  <title>background</title>
  <rect x="-1" y="-1" width="536" height="104" id="canvas_background" fill="none"/>
 </g>
 <g>
  <title>Layer 1</title>
  <path fill="#ffffff" d="m146.82779,72.64356l-16.49846,-58.00305l11.18285,0l10.54765,39.86848l10.56437,-39.78238l11.18285,-0.0861l10.54765,39.86848l10.56437,-39.86848l11.18284,0l-16.49846,58.00305l-10.48079,0l-10.91539,-39.16239l-10.89868,39.16239l-10.4808,0zm0,0" id="svg_6" stroke="null"/>
  <path fill="#ffffff" d="m231.97553,73.84909c-4.33775,0 -8.15312,-0.96011 -11.4503,-2.87605c-3.28883,-1.91592 -5.86724,-4.55516 -7.73941,-7.92203c-1.86381,-3.37547 -2.79153,-7.23746 -2.79153,-11.59027c0,-4.75322 0.91101,-8.88646 2.74139,-12.39971c1.8262,-3.52185 4.33773,-6.25582 7.53881,-8.19758c3.20942,-1.95037 6.89525,-2.92771 11.06584,-2.92771c4.43385,0 8.19908,1.07636 11.29986,3.22048c3.10913,2.14842 5.40337,5.16654 6.88689,9.05867c1.47935,3.89213 1.99754,8.47313 1.55458,13.743l-10.51423,0l0,-4.0299c0,-4.43031 -0.68534,-7.61634 -2.05603,-9.5581c-1.36234,-1.95037 -3.5939,-2.92771 -6.70303,-2.92771c-3.62315,0 -6.28513,1.13664 -7.99014,3.40992c-1.70501,2.26467 -2.55751,5.61 -2.55751,10.04031c0,4.05574 0.8525,7.19011 2.55751,9.40311c1.70501,2.21731 4.21238,3.32381 7.5221,3.32381c2.08111,0 3.86552,-0.46929 5.34905,-1.41218c1.49188,-0.93859 2.62855,-2.29481 3.41001,-4.06435l10.63123,3.13437c-1.58382,3.98685 -4.09118,7.07816 -7.52209,9.28255c-3.42256,2.19148 -7.16689,3.28937 -11.233,3.28937zm-14.00782,-19.89119l0,-8.14592l27.99892,0l0,8.14592l-27.99892,0zm0,0" id="svg_10" stroke="null"/>
  <path fill="#ffffff" d="m280.59903,73.84909c-4.19148,0 -7.69762,-1.00747 -10.51422,-3.01382c-2.82079,-2.01926 -4.94369,-4.75752 -6.36871,-8.2148c-1.41666,-3.46589 -2.1229,-7.37524 -2.1229,-11.72806c0,-4.3485 0.70206,-8.25355 2.10618,-11.71083c1.41248,-3.46589 3.48524,-6.20415 6.21827,-8.2148c2.74139,-2.01925 6.11797,-3.03104 10.12976,-3.03104c4.04521,0 7.56388,0.99456 10.56436,2.97937c2.99631,1.98912 5.3198,4.71017 6.97049,8.16314c1.65904,3.44436 2.49064,7.38385 2.49064,11.81416c0,4.35282 -0.81489,8.26217 -2.4405,11.72806c-1.62979,3.45728 -3.90314,6.19554 -6.82004,8.2148c-2.92108,2.00635 -6.32691,3.01382 -10.21333,3.01382zm-20.79442,-1.20553l0,-58.00305l10.71481,0l0,28.1921l-1.33726,0l0,29.81095l-9.37755,0zm19.07269,-8.54201c2.29424,0 4.17059,-0.58986 5.63322,-1.77386c1.45845,-1.17969 2.5408,-2.7727 3.24286,-4.77043c0.70206,-1.99773 1.05309,-4.21935 1.05309,-6.66485c0,-2.41966 -0.36775,-4.63266 -1.10324,-6.63039c-0.72714,-1.99773 -1.85127,-3.59074 -3.37659,-4.78766c-1.51696,-1.19261 -3.46016,-1.79107 -5.8338,-1.79107c-2.21902,0 -4.01178,0.5511 -5.38247,1.65329c-1.3707,1.1022 -2.36947,2.64785 -2.99213,4.63267c-0.62685,1.98912 -0.93609,4.29684 -0.93609,6.92316c0,2.63064 0.30924,4.93836 0.93609,6.92317c0.62266,1.98912 1.64233,3.53048 3.05899,4.63267c1.42502,1.1022 3.32643,1.6533 5.70007,1.6533zm0,0" id="svg_14" stroke="null"/>
  <path fill="#ffffff" d="m326.72881,93.18919c-2.39872,0 -4.67624,-0.39611 -6.83675,-1.18831c-2.16469,-0.7922 -4.10372,-1.8944 -5.81709,-3.30659c-1.70501,-1.41219 -3.09242,-3.05687 -4.16223,-4.92544l9.86231,-4.92543c0.67698,1.28302 1.6465,2.26036 2.90854,2.9277c1.25786,0.67596 2.63274,1.0161 4.1288,1.0161c1.57964,0 3.0757,-0.27555 4.47983,-0.82665c1.41248,-0.54249 2.54497,-1.35622 3.3933,-2.4455c0.84414,-1.09359 1.24115,-2.4412 1.18682,-4.04713l0,-12.65803l1.33726,0l0,-33.66864l9.31068,0l0,46.48167c0,1.07636 -0.05014,2.09245 -0.15044,3.04826c-0.09194,0.9515 -0.25074,1.89871 -0.48476,2.8416c-0.68117,2.65216 -1.93903,4.83933 -3.77776,6.56151c-1.83038,1.72218 -4.07447,3.0009 -6.73645,3.84047c-2.66617,0.84817 -5.54547,1.27441 -8.64206,1.27441zm-0.93609,-19.3401c-3.89059,0 -7.29643,-1.00747 -10.21333,-3.01382c-2.92108,-2.01926 -5.19442,-4.75752 -6.82003,-8.2148c-1.62979,-3.46589 -2.4405,-7.37524 -2.4405,-11.72806c0,-4.43031 0.82325,-8.3698 2.47393,-11.81416c1.65904,-3.45297 3.98671,-6.17401 6.98719,-8.16314c2.9963,-1.98481 6.51915,-2.97936 10.56437,-2.97936c4.01178,0 7.38001,1.01178 10.11304,3.03103c2.74138,2.01065 4.81414,4.74891 6.21826,8.2148c1.41248,3.45728 2.12291,7.36233 2.12291,11.71083c0,4.35282 -0.7146,8.26217 -2.13962,11.72806c-1.41666,3.45728 -3.53539,6.19554 -6.35199,8.2148c-2.80825,2.00635 -6.31439,3.01382 -10.51423,3.01382zm1.72173,-9.74754c2.37364,0 4.2667,-0.5511 5.68337,-1.6533c1.42501,-1.10219 2.44885,-2.64355 3.0757,-4.63267c0.62266,-1.98481 0.93608,-4.29253 0.93608,-6.92317c0,-2.62632 -0.31342,-4.93404 -0.93608,-6.92317c-0.62685,-1.98481 -1.62144,-3.53046 -2.99213,-4.63266c-1.37069,-1.10219 -3.16764,-1.65329 -5.38248,-1.65329c-2.37364,0 -4.3252,0.59846 -5.85052,1.79107c-1.51696,1.19692 -2.64109,2.78993 -3.37658,4.78766c-0.72714,1.99773 -1.08652,4.21073 -1.08652,6.63039c0,2.4455 0.35102,4.66712 1.05308,6.66485c0.70207,1.99773 1.78023,3.59074 3.24286,4.77043c1.45845,1.184 3.3348,1.77386 5.63322,1.77386zm0,0" id="svg_18" stroke="null"/>
  <path fill="#ffffff" d="m377.08768,73.84909c-4.33775,0 -8.15312,-0.96011 -11.4503,-2.87605c-3.28883,-1.91592 -5.86724,-4.55516 -7.73941,-7.92203c-1.86381,-3.37547 -2.79153,-7.23746 -2.79153,-11.59027c0,-4.75322 0.91101,-8.88646 2.74139,-12.39971c1.8262,-3.52185 4.33773,-6.25582 7.53881,-8.19758c3.20943,-1.95037 6.89525,-2.92771 11.06584,-2.92771c4.43385,0 8.19908,1.07636 11.29986,3.22048c3.10913,2.14842 5.40337,5.16654 6.8869,9.05867c1.47934,3.89213 1.99753,8.47313 1.55457,13.743l-10.51423,0l0,-4.0299c0,-4.43031 -0.68534,-7.61634 -2.05603,-9.5581c-1.36234,-1.95037 -3.5939,-2.92771 -6.70303,-2.92771c-3.62315,0 -6.28513,1.13664 -7.99014,3.40992c-1.70501,2.26467 -2.55751,5.61 -2.55751,10.04031c0,4.05574 0.8525,7.19011 2.55751,9.40311c1.70501,2.21731 4.21238,3.32381 7.5221,3.32381c2.08111,0 3.86552,-0.46929 5.34905,-1.41218c1.49188,-0.93859 2.62855,-2.29481 3.41001,-4.06435l10.63123,3.13437c-1.58382,3.98685 -4.09118,7.07816 -7.52209,9.28255c-3.42256,2.19148 -7.16689,3.28937 -11.233,3.28937zm-14.00782,-19.89119l0,-8.14592l27.99892,0l0,8.14592l-27.99892,0zm0,0" id="svg_22" stroke="null"/>
  <path fill="#ffffff" d="m433.76818,72.64356l0,-20.54562c0,-0.98595 -0.0585,-2.24744 -0.16715,-3.7888c-0.1003,-1.54996 -0.42626,-3.10422 -0.96952,-4.6671c-0.54744,-1.55857 -1.43755,-2.86313 -2.67452,-3.90936c-1.23697,-1.04192 -2.99213,-1.56718 -5.26547,-1.56718c-0.91519,0 -1.89725,0.15069 -2.94198,0.44777c-1.03638,0.28847 -2.01425,0.85678 -2.92526,1.70495c-0.90265,0.85248 -1.65068,2.09676 -2.23991,3.73714c-0.59341,1.63177 -0.88594,3.80172 -0.88594,6.50984l-6.10125,-2.97937c0,-3.43145 0.67699,-6.65192 2.03932,-9.66143c1.35816,-3.00521 3.39748,-5.43349 6.11798,-7.28484c2.72884,-1.85995 6.15975,-2.78993 10.29691,-2.78993c3.31808,0 6.02185,0.58124 8.10714,1.73941c2.08111,1.14956 3.70255,2.61341 4.8643,4.39156c1.15756,1.76954 1.98081,3.61228 2.47393,5.5282c0.50148,1.92024 0.80236,3.66824 0.90265,5.25265c0.10865,1.58441 0.16716,2.74688 0.16716,3.47881l0,24.40331l-10.79839,0l0,-0.00001zm-28.85142,0l0,-43.50229l9.46113,0l0,14.41465l1.32054,0l0,29.08764l-10.78167,0zm0,0" id="svg_26" stroke="null"/>
  <path fill="#ffffff" d="m455.49506,23.09641l0,-9.66143l10.63123,0l0,9.66143l-10.63123,0zm0,49.54715l0,-43.50229l10.63123,0l0,43.50229l-10.63123,0zm0,0" id="svg_30" stroke="null"/>
  <path fill="#ffffff" d="m473.17219,72.64356l15.09433,-21.99225l-14.79345,-21.51004l12.52011,0l8.44146,12.88192l8.29103,-12.88192l12.5201,0l-14.79345,21.51004l15.17792,21.99225l-12.52012,0l-8.67548,-13.38135l-8.75906,13.38135l-12.5034,0l0.00001,0zm0,0" id="svg_34" stroke="null"/>
  <path fill="#4505fa" d="m55.61257,26.47242c-4.65708,-0.2107 -9.16327,-0.83761 -13.44049,-1.82938c3.22613,-8.05237 8.0237,-13.84883 13.44049,-15.62682l0,17.4562zm0,18.34006l-17.62928,0c0.22896,-4.77901 0.93663,-9.34219 2.01895,-13.52509c5.01611,1.19731 10.25078,1.92187 15.61033,2.14284l0,11.38225zm0,17.77993c-5.40637,0.22611 -10.68788,0.96094 -15.74042,2.17881c-1.00947,-4.03902 -1.66511,-8.42748 -1.88886,-13.00608l17.62928,0l0,10.82727zm0,24.97413c-5.53125,-1.81911 -10.4121,-7.82112 -13.64343,-16.14068c4.33967,-1.01747 8.9135,-1.65981 13.64343,-1.87564l0,18.01632zm-25.90795,-12.00917c1.74836,-0.78622 3.55916,-1.50564 5.4324,-2.15312c1.43614,3.80265 3.19491,7.22503 5.21905,10.16437c-3.99104,-2.07603 -7.58662,-4.79442 -10.65145,-8.01125zm-4.45936,-5.60633c-3.51231,-5.3237 -5.77062,-11.52099 -6.3586,-18.1859l12.03556,0c0.22375,5.3083 0.96264,10.34423 2.13342,14.97934c-2.69538,0.92498 -5.30752,1.99896 -7.81038,3.20656zm0.28099,-43.74583c2.46123,1.17676 5.01613,2.21478 7.65947,3.11405c-1.24883,4.77901 -2.03454,9.98965 -2.2635,15.49322l-12.03556,0c0.5984,-6.83963 2.96596,-13.19108 6.63959,-18.60727zm14.82982,-13.19108c-1.93568,2.81088 -3.63201,6.06369 -5.03173,9.67105c-1.8056,-0.61664 -3.55396,-1.30522 -5.24507,-2.05548c2.98157,-3.04212 6.44706,-5.62689 10.2768,-7.61557zm22.30717,20.4161c5.36475,-0.22097 10.59942,-0.94553 15.61034,-2.14284c1.08751,4.1829 1.78998,8.74608 2.02413,13.52509l-17.63447,0l0,-11.38225zm0,-24.41401c5.42199,1.77799 10.21437,7.57445 13.4457,15.62682c-4.27723,0.99176 -8.78341,1.61868 -13.4457,1.82938l0,-17.4562zm25.5385,11.61348c-1.69111,0.75026 -3.44467,1.43371 -5.24507,2.05548c-1.39972,-3.60736 -3.09605,-6.86017 -5.03173,-9.67105c3.82974,1.98868 7.29523,4.56832 10.2768,7.61557zm4.55823,5.57551c3.66842,5.41619 6.03079,11.76764 6.63439,18.60727l-12.03557,0c-0.23415,-5.50357 -1.01987,-10.71421 -2.2687,-15.49322c2.64856,-0.89927 5.20864,-1.93729 7.66988,-3.11405zm-30.09673,61.36133l0,-18.01632c2.29992,0.10792 4.55821,0.31347 6.77489,0.61151l-1.03028,-7.13253c-1.89406,-0.20555 -3.80893,-0.35457 -5.74461,-0.43679l0,-10.82727l17.63448,0c-0.09887,1.99896 -0.28099,3.95682 -0.53595,5.86841l6.34819,5.07706c0.66084,-3.47892 1.08753,-7.13768 1.24883,-10.94547l12.03557,0c-0.54636,6.19729 -2.53928,11.99376 -5.63533,17.06052l5.52085,4.40902c4.63107,-7.22503 7.32125,-15.78098 7.32125,-24.9433c0,-25.81175 -21.29249,-46.80851 -47.46062,-46.80851c-26.16812,0 -47.46062,20.99676 -47.46062,46.80851c0,25.80661 21.2925,46.80851 47.46062,46.80851c4.73513,0 9.30376,-0.69372 13.62783,-1.97327l-1.74836,-12.03486c-2.47685,3.2117 -5.31793,5.47786 -8.35674,6.47478" id="svg_36" stroke="null"/>
  <path fill="#4505FA" d="m102.27707,80.7115l-29.5868,-23.64834c-0.69205,-0.54984 -1.14996,-0.29291 -1.02507,0.57039l5.38556,37.18372c0.12489,0.86843 0.71808,1.04829 1.31647,0.40081l5.63534,-6.04826c0.5984,-0.64748 1.45175,-0.54984 1.88885,0.21068l5.72378,9.96396c0.44229,0.76054 1.43095,1.02774 2.20107,0.5961l4.30844,-2.41005c0.77532,-0.43166 1.0459,-1.40802 0.60881,-2.16854l-5.72379,-9.95882c-0.44229,-0.76568 -0.08846,-1.53135 0.78572,-1.7112l8.1538,-1.65979c0.86897,-0.17473 1.01467,-0.77081 0.32782,-1.32066" id="svg_38" stroke="null"/>
 </g>
</svg>